<svg viewBox="0 0 1522 611" xmlns="http://www.w3.org/2000/svg" fill-rule="evenodd" clip-rule="evenodd" stroke-linejoin="round" stroke-miterlimit="1.414"><path d="M1325.325.124c17.099 2.626 30.387 17.266 31.076 34.81.073 96.472 8.807 192.024 11.396 287.88 48.901-19.515 108.684 32.196 135.463 86.69 30.48 62.033 25.337 147.75-43.07 183.675-23.472 12.324-50.342 16.943-77.103 17.117 0 0-19.68-1.717-28.89-13.747-5.088-6.649-7.76-15.18-7.136-23.51 0 0-27.853 1.553-38.882-18.55l-12.195-24.39c-17.88-36.412-11.121-81.144 3.214-121.651 0 0-.716-24.088-.826-44.062-.79-108.978-11.829-218.048-12.104-326.696 0 0 .744-19.101 11.709-28.889 7.319-6.528 17.09-9.457 27.348-8.677zm-196.762 345.822c7.228.478 14.198 2.865 19.855 7.218 0 0 26.943-3.462 38.689 15.208 12.948 20.57 11.203 23.739 15.74 31.893 13.325 24.336 17.035 53.264 30.91 77.103 3.922 6.732 12.307 8.348 12.307 8.348 25.85 3.352 41.857 39.213 21.002 59.83-17.384 17.172-50.435 10.165-70.84-5.594 0 0-4.472 6.916-8.678 11.58-46.587 51.675-146.364 47.414-185.025-18.164-35.512-60.224 11.543-151.139 85.22-179.69 12.977-5.032 26.834-7.989 40.82-7.732zm-404.735-39.883c73.944 1.176 133.213 129.007 33.262 172.628-16.897 7.374-35.512 10.065-53.86 10.193 6.759 15.272 30.727 19.487 51.96 22.766 19.514 3.02 39.294 4.068 59.075 4.224l4.968.055c25.062 1.855 42.547 34.869 26.081 56.358-13.086 17.072-39.929 14.206-65.054 12.535-42.078-2.81-86.82-7.337-118.75-35.998-61.62-55.311-37.982-182.06 10.056-222.787 14.528-12.315 32.739-20.102 52.262-19.974zm-602.91 3.462c26.144 1.773 44.263 37.083 24.253 58.792-8.853 9.615-24.777 9.798-34.098 12.434-22.104 6.263-32.426 30.847-37.036 50.875-7.053 30.654-2.608 68.416 27.632 80.272 21.03 8.246 48.819 6.667 64.844-3.306 4.82-3.003 9.541-7.586 15.529-9.404 23.647-7.181 51.931 18.128 43.593 44.227-6.254 19.542-29.855 31.269-51.17 36.834-56.725 14.822-122.413 2.121-153.854-50.012-50.157-83.155-4.437-212.456 90.242-220.39 3.186-.276 4.031-.441 10.065-.322zm157.888 6.07c5.95.405 7.732 1.038 11.047 2.324 12.067 4.656 21.058 16.447 22.28 29.442.587 6.345.155 8.366.183 12.25.45 48.938 1.322 101.182 18.862 141.707 0 0 15.272 7.173 27.697 3.306l.184-.064c16.906-25.878 26.76-56.027 28.192-87.094.551-12.159.579-24.336.588-36.513 0 0 1.313-17.54 12.682-26.962 19.515-16.19 56.12-3.012 57.414 25.382 2.489 54.448-7.09 112.257-38.863 161.544-32.38 50.232-124.553 46.88-150.257-7.338-15.061-31.783-20.222-67.607-23.455-103.34-2.323-25.694-3.131-51.508-3.205-77.295 0 0 .882-18.596 11.415-28.211 6.41-5.859 12.462-8.908 23.61-9.174.542.009 1.084.027 1.626.037zM900.175 18.31C919 21.048 931.389 38.262 931.48 58.2c.918 108.646 23.546 216.127 24.253 323.37.294 45.245 4.849 90.381 8.944 135.765l1.745 5.363c2.076 8.008 1.525 10.194 1.424 14.62-.11 4.849-.469 9.725-2.103 14.408-1.277 3.683.615.634-3.72 7.843 0 0-.293 1.479-5.693 6.842l-8.945 6.079c-11.837 5.16-7.585 3.81-18.155 3.232 0 0-1.561.469-9.1-2.057 0 0-1.782.074-8.78-4.775 0 0-1.442-.395-6.355-6.116l-3.012-4.362c-3.37-6.07-3.04-6.465-3.637-8.586-4.646-16.558-4.316-34.621-5.702-52.308-6.107-78.003-6.888-158.853-15.061-237.315-7.08-67.929-16.016-135.325-16.245-204.281-.055-16.217 12.195-35.476 31.168-37.597 4.904-.548 6.088-.127 7.668-.014zM577.998 298.634c.78 33.519 1.359 67.056 1.386 100.603-.156 47.046-2.323 94.248-5.776 141.652 0 0-.377 5.822-1.506 9.615-1.304 4.353.652 1.79-4.803 10.267 0 0-7.934 9.909-17.026 13.196-5.18 1.874-5.381 1.516-7.108 1.764-11.295 1.57-22.903-2.94-30.993-11.379l-6.768-11.277c-3.885-11.543-.35-41.104.845-67.892 5.914-133.387-2.37-266.003-3.031-398.545-.156-30.544 8.623-47.606 31.159-50.106 4.904-.544 6.088-.121 7.668-.007 7.797 1.14 9 2.014 12.205 3.66 11.396 5.843 18.577 18.242 19.064 31.169.046 52.063 1.414 104.251 2.838 156.523 19.836 3.572 39.525 8.706 59.324 8.77 0 0 41.306 11.672 34.06 42.968-4.233 18.275-23.38 28.129-44.373 26.843-15.924-.973-31.535-4.794-47.165-7.824zm813.924 90.253c-10.01 6.53-16.007 18.431-21.416 30.167l-.248.533c1.8 27.605 4.289 55.164 4.353 82.76v36.467l-.082 2.185s28.22.156 46.752-7.052c9.146-3.564 17.586-9.358 22.93-17.596 26.026-40.121-7.787-103.945-52.005-127.482 0 0-.036-.138-.284.018zm-262.89 27.1c-31.315.983-60.17 29.249-67.957 59.664-1.662 6.493-2.121 13.674.726 19.928 11.644 25.52 51.252 27.412 71.914 10.625 2.379-1.938 3.27-4.812 4.151-7.586 6.924-22.177 9.597-46.182 1.221-68.13-1.744-2.168-2.038-2.158-2.654-2.875-3.783-4.417-6.63-11.69-7.401-11.626zm-406.04-39.8c-12.195.165-18.339 24.694-22.012 42.114 0 0 53.787 4.83 33.482-31.535-2.736-4.904-6.795-10.597-11.47-10.58z" fill-rule="nonzero"/></svg>