<svg xmlns="http://www.w3.org/2000/svg" fill="#fff" viewBox="0 0 170 85"><path d="M165,0a5,5,0,0,0-5,5V70a5,5,0,0,1-10,0V50a19.9,19.9,0,0,0-6.8-15A19.9,19.9,0,0,0,150,20V5a5,5,0,0,0-10,0V20a10,10,0,0,1-10,10V5a5,5,0,0,0-10,0V70a5,5,0,0,1-10,0V15a15,15,0,0,0-30,0V70a5,5,0,0,1-10,0V15a15,15,0,0,0-30,0V70a5,5,0,0,1-10,0V15A15,15,0,0,0,0,15V80a5,5,0,0,0,5,5,5,5,0,0,0,5-5V15a5,5,0,0,1,10,0V70a15,15,0,0,0,30,0V15a5,5,0,0,1,10,0V70a15,15,0,0,0,30,0V15a5,5,0,0,1,10,0V70a15,15,0,0,0,30,0V40a10,10,0,0,1,10,10V70a15,15,0,0,0,30,0V5A5,5,0,0,0,165,0Z"/></svg>